<?xml version="1.0" encoding="utf-8"?>
<!-- Generator: Adobe Illustrator 18.1.1, SVG Export Plug-In . SVG Version: 6.00 Build 0)  -->
<svg version="1.1" id="Layer_1" xmlns="http://www.w3.org/2000/svg" xmlns:xlink="http://www.w3.org/1999/xlink" x="0px" y="0px"
	 viewBox="61 0 200 200" enable-background="new 61 0 200 200" xml:space="preserve">
<g id="Layer_2">
</g>
<path d="M-86.5,167.5c-16.5,0-31.6-6-43.3-16l-28.7,3.9l11.1-27.4c-3.9-8.5-6-18-6-28c0-37.3,30-67.5,67-67.5c37,0,67,30.2,67,67.5
	C-19.5,137.3-49.5,167.5-86.5,167.5z"/>
<path fill="#FFFFFF" d="M163.5,166.5c-16.5,0-31.6-6-43.3-16l-28.7,3.9l11.1-27.4c-3.9-8.5-6-18-6-28c0-37.3,30-67.5,67-67.5
	c37,0,67,30.2,67,67.5C230.5,136.3,200.5,166.5,163.5,166.5z"/>
</svg>
